<!DOCTYPE svg PUBLIC "-//W3C//DTD SVG 1.1//EN" "http://www.w3.org/Graphics/SVG/1.1/DTD/svg11.dtd">
<!-- Uploaded to: SVG Repo, www.svgrepo.com, Transformed by: SVG Repo Mixer Tools -->
<svg width="800px" height="800px" viewBox="-6.4 -6.4 76.80 76.80" xmlns="http://www.w3.org/2000/svg" stroke-width="3" stroke="#ffffff" fill="none">
<g id="SVGRepo_bgCarrier" stroke-width="0">
<rect x="-6.4" y="-6.4" width="76.80" height="76.80" rx="38.4" fill="#000000" strokewidth="0"/>
</g>
<g id="SVGRepo_tracerCarrier" stroke-linecap="round" stroke-linejoin="round"/>
<g id="SVGRepo_iconCarrier">
<path d="M34.34,24.1H25.65V55.53h9V41.13c0-3.82.72-7.49,5.43-7.49s4.72,4.34,4.72,7.73V55.53h9V39.46c0-7.76-1.65-14.92-10.81-14.92-3.38-.13-6.65.49-8.47,3.25a.11.11,0,0,1-.21-.06Z" stroke-linecap="round"/>
<path d="M10.92,24.1H20V55.53H10.92Z" stroke-linecap="round"/>
<path d="M15.44,8.47a5.27,5.27,0,1,0,5.25,5.29v0A5.25,5.25,0,0,0,15.44,8.47Z" stroke-linecap="round"/>
</g>
</svg>